PathFileType   4   (X/Y/Z)
DataRate	CameraRate	NumFrames	NumMarkers	Units	OrigDataRate	OrigDataStartFrame	OrigNumFrames
120.0	120.0	10	37	mm	120.0	61	161
Frame#	Time	midhip	hip_r	hip_l	knee_r	knee_l	ankle_r	ankle_l	midasis	asis_r	asis_l	psis_r	psis_l	epicondLat_r	epicondLat_l	epicondMed_r	epicondMed_l	malleolusLat_r	malleolusLat_l	malleolusMedv_r	malleolusMedv_l	neck	subclavicle_r	subclavicle_l	sternalnotch	xyphoidprocess	thighwand_r	thighwand_l	upperleg1_r	upperleg1_l	upperleg2_r	upperleg2_l	shankwand_r	shankwand_l	lowerleg1_r	lowerleg1_l	toe_r	toe_l
 	 	X1	Y1	Z1	X2	Y2	Z2	X3	Y3	Z3	X4	Y4	Z4	X5	Y5	Z5	X6	Y6	Z6	X7	Y7	Z7	X8	Y8	Z8	X9	Y9	Z9	X10	Y10	Z10	X11	Y11	Z11	X12	Y12	Z12	X13	Y13	Z13	X14	Y14	Z14	X15	Y15	Z15	X16	Y16	Z16	X17	Y17	Z17	X18	Y18	Z18	X19	Y19	Z19	X20	Y20	Z20	X21	Y21	Z21	X22	Y22	Z22	X23	Y23	Z23	X24	Y24	Z24	X25	Y25	Z25	X26	Y26	Z26	X27	Y27	Z27	X28	Y28	Z28	X29	Y29	Z29	X30	Y30	Z30	X31	Y31	Z31	X32	Y32	Z32	X33	Y33	Z33	X34	Y34	Z34	X35	Y35	Z35	X36	Y36	Z36	X37	Y37	Z37

	61	0.77500	1685.378	831.840	-262.511	1693.321	815.796	-204.181	1676.897	812.243	-320.445	1822.261	459.927	-203.051	1626.923	457.904	-308.342	1899.038	68.873	-189.316	1467.141	80.091	-303.318	1742.284	895.877	-266.870	1747.926	897.517	-166.628	1736.643	894.237	-367.112	1586.309	918.793	-225.998	1583.447	920.561	-281.201	1837.789	465.719	-150.607	1639.812	454.282	-361.172	1800.496	445.103	-254.091	1607.029	449.721	-268.690	1894.400	69.304	-151.099	1475.443	76.083	-340.698	1910.453	87.112	-221.438	1481.614	89.796	-275.693	1644.785	1332.967	-259.245	1742.496	1258.353	-209.400	1741.240	1254.706	-317.091	1727.375	1267.919	-268.517	1775.672	1099.288	-262.447	1890.256	661.668	-223.818	1778.779	603.014	-287.905	1812.171	684.645	-165.224	1721.365	653.285	-355.421	1831.793	601.722	-165.983	1705.852	565.818	-348.832	1875.007	193.067	-84.306	1496.042	193.163	-414.115	1872.228	197.828	-126.549	1501.992	197.866	-371.466	2015.216	77.898	-175.808	1586.265	38.087	-294.306
	62	0.78333	1691.255	831.677	-261.433	1698.984	815.487	-203.100	1682.664	811.881	-319.377	1826.846	459.509	-203.619	1631.046	457.683	-307.805	1901.896	68.105	-190.298	1467.831	81.256	-303.401	1748.076	895.488	-265.791	1753.627	897.182	-165.554	1742.526	893.794	-366.028	1592.080	918.572	-224.983	1589.234	920.311	-280.176	1843.066	465.259	-151.381	1643.887	454.085	-360.648	1803.558	445.603	-255.193	1614.648	448.389	-267.790	1897.753	68.613	-152.025	1476.088	77.239	-340.790	1912.933	85.840	-222.799	1482.441	90.869	-275.766	1649.943	1332.664	-258.193	1748.132	1258.047	-208.403	1746.837	1254.362	-316.098	1732.965	1267.595	-267.527	1781.630	1099.037	-261.417	1895.223	661.261	-225.301	1783.865	602.313	-287.189	1818.269	684.680	-165.291	1726.712	652.912	-354.392	1837.373	601.459	-166.814	1712.334	565.905	-347.810	1879.827	192.539	-85.241	1497.773	194.365	-414.012	1876.234	196.933	-127.683	1503.701	198.878	-371.342	2018.272	75.847	-178.734	1586.470	38.135	-294.424
	63	0.79167	1697.214	831.597	-260.426	1704.715	815.244	-201.983	1688.518	811.576	-318.275	1831.609	459.220	-204.229	1635.318	457.514	-307.234	1904.043	67.334	-191.062	1468.581	82.542	-303.486	1753.952	895.157	-264.674	1759.395	896.911	-164.446	1748.508	893.402	-364.901	1597.926	918.421	-223.974	1595.088	920.130	-279.158	1848.470	464.901	-152.187	1648.134	453.940	-360.085	1807.259	445.851	-255.871	1621.588	446.906	-268.061	1900.442	67.957	-152.736	1476.792	78.518	-340.884	1914.457	84.502	-223.902	1483.430	92.004	-275.836	1655.226	1332.331	-257.174	1753.799	1257.762	-207.377	1752.481	1254.088	-315.079	1738.595	1267.338	-266.501	1787.628	1098.832	-260.426	1900.279	661.017	-226.647	1789.014	601.682	-286.393	1824.308	684.578	-165.407	1732.292	652.610	-353.241	1843.027	601.242	-167.475	1718.689	565.729	-347.097	1884.341	192.125	-86.074	1499.600	195.687	-413.888	1879.861	196.167	-128.620	1505.427	200.001	-371.241	2020.622	73.403	-181.517	1586.706	38.194	-294.537
	64	0.80000	1703.250	831.618	-259.413	1710.512	815.080	-200.838	1694.448	811.343	-317.146	1836.517	459.066	-204.864	1639.763	457.404	-306.633	1905.606	66.589	-191.603	1469.408	83.961	-303.574	1759.901	894.898	-263.528	1765.226	896.720	-163.313	1754.575	893.076	-363.744	1603.839	918.350	-222.966	1601.005	920.029	-278.140	1853.979	464.660	-153.010	1652.573	453.855	-359.487	1811.846	445.753	-256.106	1620.255	450.696	-264.992	1902.613	67.358	-153.227	1477.571	79.931	-340.982	1915.089	83.379	-224.519	1484.490	93.209	-275.884	1660.810	1332.115	-256.119	1759.472	1257.527	-206.341	1758.160	1253.896	-314.049	1744.262	1267.170	-265.442	1793.376	1098.634	-259.455	1905.403	660.914	-227.879	1794.243	601.143	-285.533	1830.135	684.382	-165.682	1737.353	652.246	-352.290	1848.725	601.070	-168.000	1720.512	565.381	-345.684	1888.682	191.839	-86.790	1501.541	197.141	-413.746	1883.214	195.697	-129.263	1507.269	201.256	-371.097	2022.403	70.692	-184.116	1586.975	38.266	-294.648
	65	0.80833	1709.320	831.709	-258.358	1716.373	815.011	-199.672	1700.448	811.195	-315.997	1841.521	459.043	-205.494	1644.409	457.355	-306.009	1906.737	65.889	-191.937	1470.326	85.522	-303.668	1765.916	894.730	-262.368	1771.120	896.629	-162.165	1760.713	892.831	-362.571	1609.814	918.371	-221.961	1606.982	920.018	-277.118	1859.561	464.541	-153.828	1657.227	453.833	-358.863	1816.365	445.715	-256.175	1626.385	449.562	-264.156	1904.427	66.830	-153.518	1478.438	81.488	-341.087	1915.308	82.468	-224.777	1485.526	94.596	-275.956	1666.632	1332.042	-255.025	1765.180	1257.420	-205.216	1763.884	1253.787	-312.958	1749.963	1267.116	-264.347	1798.974	1098.500	-258.338	1910.568	660.928	-229.037	1799.574	600.715	-284.627	1835.966	684.281	-165.924	1742.203	651.797	-351.365	1854.370	600.984	-168.422	1725.894	564.988	-344.852	1892.967	191.675	-87.388	1503.614	198.738	-413.593	1886.410	195.573	-129.669	1509.068	202.695	-371.074	2023.775	67.878	-186.500	1587.278	38.352	-294.762
	66	0.81667	1715.378	831.834	-257.265	1722.299	815.053	-198.495	1706.511	811.143	-314.836	1846.557	459.136	-206.084	1649.273	457.366	-305.376	1907.592	65.251	-192.096	1471.346	87.229	-303.773	1771.993	894.667	-261.205	1777.076	896.653	-161.012	1766.910	892.680	-361.397	1615.846	918.495	-220.958	1613.021	920.105	-276.093	1865.176	464.539	-154.614	1662.110	453.876	-358.228	1820.637	445.971	-256.264	1631.585	449.485	-262.793	1906.040	66.376	-153.644	1479.404	83.194	-341.203	1915.537	81.723	-224.903	1486.629	96.217	-276.078	1672.440	1332.065	-253.856	1770.887	1257.474	-204.038	1769.637	1253.851	-311.841	1755.698	1267.194	-263.218	1804.681	1098.554	-257.191	1915.742	661.035	-230.166	1805.026	600.418	-283.692	1841.797	684.423	-166.091	1747.486	651.498	-350.370	1859.941	601.098	-168.814	1731.072	564.744	-343.781	1897.275	191.606	-87.876	1505.831	200.485	-413.438	1889.734	195.677	-129.937	1511.070	204.293	-371.027	2024.894	65.125	-188.648	1587.619	38.455	-294.884
	67	0.82500	1721.507	832.081	-256.150	1728.294	815.213	-197.314	1712.634	811.194	-313.668	1851.562	459.311	-206.594	1654.368	457.430	-304.752	1908.311	64.685	-192.121	1472.481	89.086	-303.892	1778.128	894.718	-260.051	1783.100	896.805	-159.866	1773.156	892.630	-360.237	1621.938	918.726	-219.959	1619.126	920.292	-275.067	1870.779	464.631	-155.336	1667.231	453.979	-357.600	1825.154	446.463	-256.437	1636.924	449.607	-261.561	1907.571	65.990	-153.650	1480.479	85.049	-341.336	1916.045	81.180	-224.961	1487.930	97.971	-276.216	1678.180	1332.242	-252.665	1776.590	1257.683	-202.871	1775.434	1254.112	-310.692	1761.463	1267.411	-262.058	1810.493	1098.803	-256.081	1920.893	661.206	-231.305	1810.605	600.255	-282.752	1847.619	684.790	-166.269	1753.006	651.446	-349.344	1865.617	601.460	-169.271	1736.456	564.685	-342.721	1901.629	191.592	-88.268	1508.199	202.384	-413.289	1893.398	195.786	-130.087	1513.803	205.978	-370.606	2025.896	62.562	-190.556	1588.002	38.575	-295.020
	68	0.83333	1727.753	832.498	-255.016	1734.367	815.493	-196.132	1718.812	811.348	-312.495	1856.474	459.527	-206.987	1659.697	457.536	-304.158	1908.994	64.191	-192.052	1473.749	91.083	-304.032	1784.319	894.885	-258.917	1789.200	897.089	-158.733	1779.439	892.682	-359.102	1628.094	919.060	-218.962	1625.296	920.577	-274.037	1876.323	464.780	-155.964	1672.588	454.137	-357.002	1829.639	447.251	-256.780	1642.596	449.705	-260.328	1909.091	65.657	-153.580	1481.673	87.050	-341.491	1916.954	80.764	-224.989	1489.448	99.876	-276.353	1683.940	1332.553	-251.550	1782.314	1258.057	-201.648	1781.311	1254.519	-309.477	1767.254	1267.761	-260.871	1816.399	1099.216	-254.864	1925.996	661.407	-232.479	1816.314	600.222	-281.835	1853.554	685.417	-166.453	1758.662	651.526	-348.228	1871.426	601.990	-169.850	1742.059	564.730	-341.610	1905.996	191.588	-88.581	1510.715	204.432	-413.156	1897.321	195.834	-130.173	1516.658	207.833	-370.284	2026.866	60.255	-192.223	1588.431	38.710	-295.176
	69	0.84167	1734.052	833.003	-253.880	1740.526	815.885	-194.947	1725.038	811.594	-311.314	1861.246	459.740	-207.234	1665.256	457.671	-303.615	1909.687	63.756	-191.921	1475.165	93.206	-304.197	1790.567	895.161	-257.809	1795.388	897.496	-157.621	1785.746	892.827	-357.996	1634.323	919.487	-217.959	1631.533	920.949	-273.001	1881.766	464.945	-156.471	1678.164	454.341	-356.460	1834.085	448.091	-256.962	1648.228	450.072	-259.068	1910.611	65.356	-153.466	1482.996	89.181	-341.676	1918.157	80.432	-224.993	1491.197	101.960	-276.512	1689.826	1332.911	-250.460	1788.042	1258.595	-200.347	1787.234	1255.062	-308.255	1773.071	1268.224	-259.659	1822.351	1099.785	-253.554	1931.036	661.598	-233.686	1822.157	600.301	-280.980	1859.526	686.211	-166.778	1764.419	651.695	-347.202	1877.266	602.646	-170.489	1747.713	564.965	-340.544	1910.295	191.552	-88.824	1513.371	206.620	-413.050	1901.318	195.906	-130.235	1519.206	209.941	-370.352	2027.838	58.200	-193.660	1588.913	38.859	-295.354
	70	0.85000	1740.361	833.513	-252.769	1746.773	816.373	-193.754	1731.303	811.916	-310.118	1865.849	459.912	-207.315	1671.030	457.816	-303.145	1910.393	63.365	-191.752	1476.747	95.429	-304.396	1796.869	895.527	-256.726	1801.675	898.009	-156.536	1792.063	893.046	-356.915	1640.632	919.992	-216.939	1637.837	921.389	-271.951	1887.071	465.081	-156.838	1683.931	454.579	-355.997	1838.867	448.483	-256.596	1654.372	450.320	-258.115	1912.098	65.065	-153.327	1484.459	91.424	-341.902	1919.423	80.130	-224.976	1493.140	104.154	-276.726	1695.799	1333.366	-249.407	1793.777	1259.213	-199.057	1793.173	1255.679	-307.043	1778.913	1268.774	-258.424	1828.239	1100.414	-252.238	1936.013	661.739	-234.895	1828.138	600.460	-280.234	1865.374	686.821	-167.401	1770.310	652.026	-346.252	1883.065	603.327	-171.090	1753.696	565.388	-339.634	1914.419	191.456	-88.999	1516.149	208.937	-412.982	1905.190	195.958	-130.277	1522.005	212.155	-370.412	2028.800	56.341	-194.881	1589.452	39.018	-295.559
